HIERARCHY
ROOT hip
{
  OFFSET 0 0 0
  CHANNELS 6 Xposition Yposition Zposition Zrotation Yrotation Xrotation
  JOINT abdomen
  {
    OFFSET 0 20.6881 -0.73152
    CHANNELS 3 Zrotation Xrotation Yrotation
    JOINT chest
    {
      OFFSET 0 11.7043 -0.48768
      CHANNELS 3 Zrotation Xrotation Yrotation
      JOINT neck
      {
        OFFSET 0 22.1894 -2.19456
        CHANNELS 3 Zrotation Xrotation Yrotation
        JOINT head
        {
          OFFSET -0.24384 7.07133 1.2192
          CHANNELS 3 Zrotation Xrotation Yrotation
          JOINT leftEye
          {
            OFFSET 4.14528 8.04674 8.04672
            CHANNELS 3 Zrotation Xrotation Yrotation
            End Site
            {
              OFFSET 1 0 0
            }
          }
          JOINT rightEye
          {
            OFFSET -3.6576 8.04674 8.04672
            CHANNELS 3 Zrotation Xrotation Yrotation
            End Site
            {
              OFFSET 1 0 0
            }
          }
        }
      }
      JOINT rCollar
      {
        OFFSET -2.68224 19.2634 -4.8768
        CHANNELS 3 Zrotation Xrotation Yrotation
        JOINT rShldr
        {
          OFFSET -8.77824 -1.95073 1.46304
          CHANNELS 3 Zrotation Xrotation Yrotation
          JOINT rForeArm
          {
            OFFSET -28.1742 -1.7115 0.48768
            CHANNELS 3 Zrotation Xrotation Yrotation
            JOINT rHand
            {
              OFFSET -22.5879 0.773209 7.07136
              CHANNELS 3 Zrotation Xrotation Yrotation
              JOINT rThumb1
              {
                OFFSET -1.2192 -0.487915 3.41376
                CHANNELS 3 Zrotation Xrotation Yrotation
                JOINT rThumb2
                {
                  OFFSET -3.37035 -0.52449 3.41376
                  CHANNELS 3 Zrotation Xrotation Yrotation
                  End Site
                  {
                    OFFSET -1.78271 -1.18214 1.43049
                  }
                }
              }
              JOINT rIndex1
              {
                OFFSET -7.75947 0.938293 5.60832
                CHANNELS 3 Zrotation Xrotation Yrotation
                JOINT rIndex2
                {
                  OFFSET -2.54057 -0.884171 1.56538
                  CHANNELS 3 Zrotation Xrotation Yrotation
                  End Site
                  {
                    OFFSET -1.62519 -0.234802 1.16502
                  }
                }
              }
              JOINT rMid1
              {
                OFFSET -8.24714 1.18213 3.41376
                CHANNELS 3 Zrotation Xrotation Yrotation
                JOINT rMid2
                {
                  OFFSET -3.10165 -0.590103 1.0647
                  CHANNELS 3 Zrotation Xrotation Yrotation
                  End Site
                  {
                    OFFSET -2.48547 -0.328903 0.83742
                  }
                }
              }
              JOINT rRing1
              {
                OFFSET -8.82822 0.546677 1.51678
                CHANNELS 3 Zrotation Xrotation Yrotation
                JOINT rRing2
                {
                  OFFSET -2.60934 -0.819778 -0.0198488
                  CHANNELS 3 Zrotation Xrotation Yrotation
                  End Site
                  {
                    OFFSET -2.33842 -0.294052 0.168128
                  }
                }
              }
              JOINT rPinky1
              {
                OFFSET -8.27202 -0.0477905 -0.4584
                CHANNELS 3 Zrotation Xrotation Yrotation
                JOINT rPinky2
                {
                  OFFSET -1.82734 -0.647385 -0.700984
                  CHANNELS 3 Zrotation Xrotation Yrotation
                  End Site
                  {
                    OFFSET -1.69225 -0.51767 -0.607171
                  }
                }
              }
            }
          }
        }
      }
      JOINT lCollar
      {
        OFFSET 2.68224 19.2634 -4.8768
        CHANNELS 3 Zrotation Xrotation Yrotation
        JOINT lShldr
        {
          OFFSET 8.77824 -1.95073 1.46304
          CHANNELS 3 Zrotation Xrotation Yrotation
          JOINT lForeArm
          {
            OFFSET 28.1742 -1.7115 0.48768
            CHANNELS 3 Zrotation Xrotation Yrotation
            JOINT lHand
            {
              OFFSET 22.5879 0.773209 7.07136
              CHANNELS 3 Zrotation Xrotation Yrotation
              JOINT lThumb1
              {
                OFFSET 1.2192 -0.487915 3.41376
                CHANNELS 3 Zrotation Xrotation Yrotation
                JOINT lThumb2
                {
                  OFFSET 3.37035 -0.52449 3.41376
                  CHANNELS 3 Zrotation Xrotation Yrotation
                  End Site
                  {
                    OFFSET 1.78271 -1.18214 1.43049
                  }
                }
              }
              JOINT lIndex1
              {
                OFFSET 7.75947 0.938293 5.60832
                CHANNELS 3 Zrotation Xrotation Yrotation
                JOINT lIndex2
                {
                  OFFSET 2.54057 -0.884171 1.56538
                  CHANNELS 3 Zrotation Xrotation Yrotation
                  End Site
                  {
                    OFFSET 1.62519 -0.234802 1.16502
                  }
                }
              }
              JOINT lMid1
              {
                OFFSET 8.24714 1.18213 3.41376
                CHANNELS 3 Zrotation Xrotation Yrotation
                JOINT lMid2
                {
                  OFFSET 3.10165 -0.590103 1.0647
                  CHANNELS 3 Zrotation Xrotation Yrotation
                  End Site
                  {
                    OFFSET 2.48547 -0.328903 0.83742
                  }
                }
              }
              JOINT lRing1
              {
                OFFSET 8.82822 0.546677 1.51678
                CHANNELS 3 Zrotation Xrotation Yrotation
                JOINT lRing2
                {
                  OFFSET 2.60934 -0.819778 -0.0198488
                  CHANNELS 3 Zrotation Xrotation Yrotation
                  End Site
                  {
                    OFFSET 2.33842 -0.294052 0.168128
                  }
                }
              }
              JOINT lPinky1
              {
                OFFSET 8.27202 -0.0477905 -0.4584
                CHANNELS 3 Zrotation Xrotation Yrotation
                JOINT lPinky2
                {
                  OFFSET 1.82734 -0.647385 -0.700984
                  CHANNELS 3 Zrotation Xrotation Yrotation
                  End Site
                  {
                    OFFSET 1.69225 -0.51767 -0.607171
                  }
                }
              }
            }
          }
        }
      }
    }
  }
  JOINT rButtock
  {
    OFFSET -8.77824 4.35084 1.2192
    CHANNELS 3 Zrotation Xrotation Yrotation
    JOINT rThigh
    {
      OFFSET 0 -1.70687 -2.19456
      CHANNELS 3 Zrotation Xrotation Yrotation
      JOINT rShin
      {
        OFFSET 0 -36.8199 0.73152
        CHANNELS 3 Zrotation Xrotation Yrotation
        JOINT rFoot
        {
          OFFSET 0.73152 -45.1104 -5.12064
          CHANNELS 3 Zrotation Xrotation Yrotation
          End Site
          {
            OFFSET -1.1221 -3.69964 12.103
          }
        }
      }
    }
  }
  JOINT lButtock
  {
    OFFSET 8.77824 4.35084 1.2192
    CHANNELS 3 Zrotation Xrotation Yrotation
    JOINT lThigh
    {
      OFFSET 0 -1.70687 -2.19456
      CHANNELS 3 Zrotation Xrotation Yrotation
      JOINT lShin
      {
        OFFSET 0 -36.8199 0.73152
        CHANNELS 3 Zrotation Xrotation Yrotation
        JOINT lFoot
        {
          OFFSET -0.73152 -45.1104 -5.12064
          CHANNELS 3 Zrotation Xrotation Yrotation
          End Site
          {
            OFFSET 1.1221 -3.69964 12.103
          }
        }
      }
    }
  }
}
MOTION
Frames:	6
Frame Time:	0.00833333
-171.199 83.185 -71.6872 0.0 0.0 0.0 -3.13119 0.00208552 -0.0845027 -0.863226 0.0181966 -0.149331 6.56562e-15 0.0 -4.47265e-16 2.10836e-14 3.18055e-15 -1.64153e-15 -0.0 0.0 0.0 -0.0 0.0 0.0 3.03106e-15 1.42682e-16 -1.49089e-16 7.50766e-14 3.33586e-15 -4.77083e-15 1.26825e-12 -2.63191e-13 -1.55847e-13 1.43374e-11 9.31654e-13 -1.12274e-12 3.38579e-11 1.44683e-12 -2.748e-12 5.84709e-11 2.5031e-12 -4.75811e-12 3.38642e-11 1.44755e-12 -2.75436e-12 7.73091 5.47488 0.417314 3.38567e-11 1.44666e-12 -2.748e-12 2.90554 0.965183 0.102902 3.38673e-11 1.44705e-12 -2.75118e-12 10.2786 0.731801 0.0259123 3.38562e-11 1.44755e-12 -2.74164e-12 2.22167 -0.733487 -0.20892 2.93268e-15 1.42682e-16 -4.47265e-16 7.08744e-14 3.32343e-15 -6.55989e-15 1.23962e-12 4.78673e-13 -1.11319e-13 1.43304e-11 1.8313e-13 -1.14182e-12 3.3788e-11 1.43182e-12 -2.74164e-12 5.83505e-11 2.46811e-12 -4.73744e-12 3.37835e-11 1.43403e-12 -2.7321e-12 -7.73091 5.47488 -0.417314 3.37877e-11 1.43195e-12 -2.74164e-12 -2.90554 0.965183 -0.102902 3.37821e-11 1.43185e-12 -2.74323e-12 -10.2786 0.731801 -0.0259123 3.37928e-11 1.43324e-12 -2.75436e-12 -2.22167 -0.733487 0.20892 -2.03217e-16 0.0 -3.88251e-19 -1.91892 -1.93503 0.0146267 -0.0084997 -2.07867 -0.0697529 -0.458525 4.00011 0.132438 2.03217e-16 0.0 3.88251e-19 -2.83835 -9.32624 0.322366 -0.0090241 11.3079 -0.235072 0.527486 -1.99509 -0.0183742
-176.141 81.0575 -76.061 6.6507 -73.2582 -1.1428 -2.5253 6.27187 -1.32859 0.160627 -0.598872 -0.519682 -4.81542 3.89951 -2.3388 10.8038 -13.0088 -0.449868 -0.0 0.0 0.0 -0.0 0.0 0.0 5.00406e-14 3.2227e-13 -1.30231e-13 17.86 4.61389 5.15107 -10.2801 -7.14105 12.5065 0.0356541 -4.25525 -0.592457 5.04639e-10 3.52939e-10 -1.7274e-10 8.74561e-10 6.1122e-10 -2.95688e-10 5.04646e-10 3.52939e-10 -1.72745e-10 7.73091 5.47488 0.417314 5.04639e-10 3.52939e-10 -1.72741e-10 2.90554 0.965183 0.102902 5.04647e-10 3.52939e-10 -1.72741e-10 10.2786 0.731801 0.0259123 5.04637e-10 3.5294e-10 -1.72733e-10 2.22167 -0.733487 -0.20892 4.99533e-14 3.22271e-13 -1.30562e-13 -21.2985 13.1074 0.555738 9.6752 -6.534 -12.0847 -0.0718265 -5.96093 0.821569 -3.12531e-11 2.05672e-10 4.15796e-10 -6.10645e-11 3.56505e-10 7.18372e-10 -3.12568e-11 2.05674e-10 4.15804e-10 -7.73091 5.47488 -0.417314 -3.12529e-11 2.05672e-10 4.15797e-10 -2.90554 0.965183 -0.102902 -3.126e-11 2.05672e-10 4.15795e-10 -10.2786 0.731801 -0.0259123 -3.1248e-11 2.05673e-10 4.15785e-10 -2.22167 -0.733487 0.20892 -2.03217e-16 0.0 -3.88251e-19 -4.91665 -11.6315 -3.97558 -0.0173342 11.9225 0.103473 -0.670326 1.04074 -1.74287 2.03217e-16 0.0 3.88251e-19 0.00996815 -16.2098 5.38222 -0.0070379 21.9454 -0.417237 0.270592 -2.84977 -1.95851
-175.552 80.7875 -76.074 6.4087 -72.9368 -0.5964 -1.58632 12.8171 -2.69066 1.22791 -1.23104 -0.910594 -9.58975 8.06958 -4.85457 22.034 -26.7092 -1.0233 -0.0 0.0 0.0 -0.0 0.0 0.0 9.98033e-14 6.72482e-13 -2.67313e-13 35.9642 9.39346 10.6491 -17.7111 -13.4405 26.2425 -0.0237109 -8.66584 -1.21788 9.8469e-10 7.21395e-10 -3.27054e-10 1.7064e-09 1.24937e-09 -5.59776e-10 9.84697e-10 7.21394e-10 -3.27058e-10 7.73091 5.47488 0.417314 9.84691e-10 7.21394e-10 -3.27056e-10 2.90554 0.965183 0.102902 9.84696e-10 7.21395e-10 -3.27054e-10 10.2786 0.731801 0.0259123 9.84687e-10 7.21396e-10 -3.27045e-10 2.22167 -0.733487 -0.20892 9.97302e-14 6.72484e-13 -2.67682e-13 -44.0935 27.0892 1.24983 16.9311 -12.454 -25.3244 0.0419404 -12.2177 1.71456 -1.16894e-10 4.12121e-10 8.47212e-10 -2.16142e-10 7.14441e-10 1.46353e-09 -1.16897e-10 4.12124e-10 8.47219e-10 -7.73091 5.47488 -0.417314 -1.16893e-10 4.12122e-10 8.47215e-10 -2.90554 0.965183 -0.102902 -1.16902e-10 4.12122e-10 8.47211e-10 -10.2786 0.731801 -0.0259123 -1.16889e-10 4.12123e-10 8.47203e-10 -2.22167 -0.733487 0.20892 -2.03217e-16 0.0 -3.88251e-19 -9.61457 -21.6185 -8.62225 -0.126202 26.6514 0.314963 -1.10997 -2.11466 -3.75121 2.03217e-16 0.0 3.88251e-19 4.40927 -23.1361 11.184 0.0844012 33.1119 -0.65815 -0.0700312 -3.72489 -4.07312
-174.944 80.4284 -76.0781 6.5359 -72.6945 -0.3638 -0.457761 18.7737 -4.00637 2.18439 -1.83264 -1.26094 -13.4769 11.6198 -7.14737 31.6494 -39.0154 -1.69251 -0.0 0.0 0.0 -0.0 0.0 0.0 1.4406e-13 9.66525e-13 -3.90394e-13 51.0664 13.3889 15.8445 -21.8855 -17.3073 39.3176 -0.162686 -12.7602 -1.81737 1.4462e-09 1.05592e-09 -5.12724e-10 2.50674e-09 1.82865e-09 -8.77548e-10 1.44621e-09 1.05592e-09 -5.12727e-10 7.73091 5.47488 0.417314 1.4462e-09 1.05592e-09 -5.12726e-10 2.90554 0.965183 0.102902 1.44621e-09 1.05592e-09 -5.12722e-10 10.2786 0.731801 0.0259123 1.4462e-09 1.05593e-09 -5.12714e-10 2.22167 -0.733487 -0.20892 1.43994e-13 9.66528e-13 -3.90791e-13 -64.8472 39.3053 2.09868 21.1057 -16.0936 -37.733 0.319298 -17.8677 2.57569 -1.61335e-10 6.14151e-10 1.25287e-09 -2.99894e-10 1.06458e-09 2.16459e-09 -1.61337e-10 6.14155e-10 1.25288e-09 -7.73091 5.47488 -0.417314 -1.61334e-10 6.14153e-10 1.25287e-09 -2.90554 0.965183 -0.102902 -1.61344e-10 6.14153e-10 1.25287e-09 -10.2786 0.731801 -0.0259123 -1.6133e-10 6.14154e-10 1.25286e-09 -2.22167 -0.733487 0.20892 -2.03217e-16 0.0 -3.88251e-19 -15.485 -30.3893 -13.6092 -0.346773 39.9234 0.577832 -1.67524 -4.85412 -5.51182 2.03217e-16 0.0 3.88251e-19 9.77805 -29.0715 17.071 0.279115 43.2178 -0.960553 -0.416953 -4.54046 -5.84997
-174.3 79.9897 -76.1373 6.2427 -72.4392 0.4863 0.552266 23.2926 -5.03993 2.87943 -2.3581 -1.50945 -15.8694 13.6995 -8.74649 37.8273 -47.8478 -2.27798 -0.0 0.0 0.0 -0.0 0.0 0.0 1.74551e-13 1.12015e-12 -4.78475e-13 60.4311 15.8385 19.9072 -23.8428 -18.8062 49.1157 -0.327521 -16.0685 -2.32005 1.86136e-09 1.30564e-09 -7.76784e-10 3.22834e-09 2.26079e-09 -1.32953e-09 1.86137e-09 1.30564e-09 -7.76787e-10 7.73091 5.47488 0.417314 1.86137e-09 1.30564e-09 -7.76787e-10 2.90554 0.965183 0.102902 1.86137e-09 1.30564e-09 -7.76781e-10 10.2786 0.731801 0.0259123 1.86136e-09 1.30564e-09 -7.76774e-10 2.22167 -0.733487 -0.20892 1.74477e-13 1.12015e-12 -4.78872e-13 -79.7516 47.1231 2.91639 23.0245 -17.3775 -46.657 0.633766 -22.0142 3.25745 -1.02778e-10 8.05135e-10 1.59413e-09 -2.05333e-10 1.39521e-09 2.75542e-09 -1.0278e-10 8.05138e-10 1.59414e-09 -7.73091 5.47488 -0.417314 -1.02777e-10 8.05137e-10 1.59414e-09 -2.90554 0.965183 -0.102902 -1.02787e-10 8.05137e-10 1.59413e-09 -10.2786 0.731801 -0.0259123 -1.02772e-10 8.05138e-10 1.59413e-09 -2.22167 -0.733487 0.20892 -2.03217e-16 0.0 -3.88251e-19 -21.0405 -36.6802 -18.018 -0.62697 49.5542 0.860524 -2.12266 -6.58244 -6.62238 2.03217e-16 0.0 3.88251e-19 14.7174 -33.2948 21.9099 0.52806 50.6743 -1.27803 -0.654954 -5.22487 -6.77343
-173.633 79.4587 -76.3101 4.5124 -72.2702 2.9066 1.10232 25.8284 -5.56627 3.23062 -2.77519 -1.61819 -16.5022 13.6991 -9.29857 39.6238 -51.7793 -2.41954 -0.0 0.0 0.0 -0.0 0.0 0.0 1.86344e-13 1.03589e-12 -5.30564e-13 62.5282 16.5335 22.1529 -24.6735 -19.4615 53.8841 -0.45324 -18.3435 -2.67483 2.33821e-09 1.48102e-09 -1.27329e-09 4.06046e-09 2.56356e-09 -2.1793e-09 2.33822e-09 1.48102e-09 -1.2733e-09 7.73091 5.47488 0.417314 2.33822e-09 1.48101e-09 -1.27329e-09 2.90554 0.965183 0.102902 2.33822e-09 1.48102e-09 -1.27329e-09 10.2786 0.731801 0.0259123 2.33821e-09 1.48102e-09 -1.27328e-09 2.22167 -0.733487 -0.20892 1.86227e-13 1.03589e-12 -5.30917e-13 -85.8444 48.8193 3.20199 23.6517 -17.6084 -50.2849 0.813513 -24.0072 3.60282 1.63516e-10 1.04218e-09 1.93944e-09 2.46297e-10 1.80482e-09 3.35557e-09 1.63513e-10 1.04219e-09 1.93944e-09 -7.73091 5.47488 -0.417314 1.63517e-10 1.04219e-09 1.93945e-09 -2.90554 0.965183 -0.102902 1.63508e-10 1.04219e-09 1.93944e-09 -10.2786 0.731801 -0.0259123 1.63521e-10 1.04219e-09 1.93943e-09 -2.22167 -0.733487 0.20892 -2.03217e-16 0.0 -3.88251e-19 -24.3613 -40.0227 -20.5466 -0.819395 54.1818 1.04061 -2.19996 -6.87441 -6.73778 2.03217e-16 0.0 3.88251e-19 17.6004 -35.7152 24.5187 0.700376 54.4713 -1.49035 -0.713737 -5.7855 -6.62402
